<?xml version="1.0" encoding="iso-8859-1"?>
<!-- Generator: Adobe Illustrator 19.0.0, SVG Export Plug-In . SVG Version: 6.00 Build 0)  -->
<svg version="1.1" id="Layer_1" xmlns="http://www.w3.org/2000/svg" xmlns:xlink="http://www.w3.org/1999/xlink" x="0px" y="0px"
	 viewBox="0 0 512 512" style="enable-background:new 0 0 512 512;" xml:space="preserve">
<circle style="fill:#366695;" cx="256" cy="256" r="256"/>
<path style="fill:#273B7A;" d="M511.953,259.687L320.534,65.905L247.38,173.253l-136.763,48.269l0.333,37.716l31.272,30.667
	l13.217,74.128l-36.345,30.756l121.797,116.757C245.893,511.836,250.927,512,256,512C396.152,512,509.978,399.37,511.953,259.687z"
	/>
<path style="fill:#D48B07;" d="M216.35,268.067h-83.732c-17.201,0-31.194-13.993-31.194-31.194c0-12.909,7.761-24.304,19.773-29.029
	l56.889-22.38c5.315-2.096,11.319,0.522,13.41,5.839c2.093,5.315-0.522,11.319-5.839,13.41l-56.889,22.381
	c-4.046,1.593-6.658,5.429-6.658,9.778c0,5.792,4.713,10.507,10.507,10.507h83.732c5.711,0,10.343,4.632,10.343,10.343
	S222.061,268.067,216.35,268.067z"/>
<path style="fill:#121149;" d="M336.679,287.375H175.321c-4.951,0-8.964-4.013-8.964-8.964l0,0c0-4.951,4.013-8.964,8.964-8.964
	h161.358c4.951,0,8.964,4.013,8.964,8.964l0,0C345.643,283.362,341.63,287.375,336.679,287.375z"/>
<path style="fill:#FEE187;" d="M307.593,70.706l49.423,143.008L170.02,218.61c-8.264,0.217-15.738-4.891-18.537-12.669l0,0
	c-2.839-7.887-0.224-16.705,6.454-21.768L307.593,70.706z"/>
<path style="fill:#FFC61B;" d="M151.09,204.693c0.119,0.417,0.243,0.833,0.391,1.245l0,0c2.801,7.778,10.273,12.886,18.537,12.669
	l186.995-4.896l-25.303-73.219L151.09,204.693z"/>
<rect x="132.741" y="308.579" style="fill:#D48B07;" width="246.519" height="76.714"/>
<rect x="254.845" y="308.579" style="fill:#B27006;" width="124.414" height="76.714"/>
<g>
	<path style="fill:#FEE187;" d="M384,312.889H128c-7.854,0-14.222-6.368-14.222-14.222l0,0c0-7.854,6.368-14.222,14.222-14.222h256
		c7.854,0,14.222,6.368,14.222,14.222l0,0C398.222,306.521,391.854,312.889,384,312.889z"/>
	<path style="fill:#FEE187;" d="M384,398.222H128c-7.854,0-14.222-6.368-14.222-14.222l0,0c0-7.854,6.368-14.222,14.222-14.222h256
		c7.854,0,14.222,6.368,14.222,14.222l0,0C398.222,391.854,391.854,398.222,384,398.222z"/>
</g>
<g>
	<path style="fill:#FFC61B;" d="M384,284.444H254.852v28.444H384c7.854,0,14.222-6.368,14.222-14.222S391.854,284.444,384,284.444z"
		/>
	<path style="fill:#FFC61B;" d="M384,369.778H254.852v28.444H384c7.854,0,14.222-6.368,14.222-14.222
		C398.222,376.146,391.854,369.778,384,369.778z"/>
	<path style="fill:#FFC61B;" d="M347.16,212.952L301.937,76.229c-1.555-4.701,0.995-9.771,5.696-11.326l3.744-1.238
		c4.701-1.555,9.771,0.995,11.326,5.696l45.223,136.723c1.555,4.701-0.995,9.771-5.696,11.326l-3.744,1.238
		C353.787,220.203,348.715,217.653,347.16,212.952z"/>
</g>
<path style="fill:#D48B07;" d="M367.926,206.084l-23.223-70.21l-20.614,7.327l23.071,69.751c1.555,4.701,6.625,7.251,11.326,5.696
	l3.744-1.238C366.932,215.855,369.481,210.785,367.926,206.084z"/>
<g>
</g>
<g>
</g>
<g>
</g>
<g>
</g>
<g>
</g>
<g>
</g>
<g>
</g>
<g>
</g>
<g>
</g>
<g>
</g>
<g>
</g>
<g>
</g>
<g>
</g>
<g>
</g>
<g>
</g>
</svg>
