<?xml version="1.0" encoding="iso-8859-1"?>
<!-- Generator: Adobe Illustrator 21.0.0, SVG Export Plug-In . SVG Version: 6.00 Build 0)  -->
<svg version="1.1" id="Capa_1" xmlns="http://www.w3.org/2000/svg" xmlns:xlink="http://www.w3.org/1999/xlink" x="0px" y="0px"
	 viewBox="0 0 512 512" style="enable-background:new 0 0 512 512;" xml:space="preserve">
<circle style="fill:#FFF200;" cx="256" cy="256" r="256"/>
<path style="fill:#FDC300;" d="M512,256c0-1.96-0.03-3.912-0.074-5.861l-136.78-136.78l-208.074-5.668L86.745,364l147.029,147.029
	C241.101,511.659,248.51,512,256,512C397.385,512,512,397.385,512,256z"/>
<path style="fill:#414952;" d="M403.167,319h-43V189.667c0-41.447-33.72-75.167-75.167-75.167h-58
	c-41.447,0-75.167,33.72-75.167,75.167V319h-43V189.667C108.833,124.509,161.843,71.5,227,71.5h58
	c65.157,0,118.167,53.009,118.167,118.167V319z"/>
<g>
	<path style="fill:#23272B;" d="M285,71.5h-29.238v43H285c41.447,0,75.167,33.72,75.167,75.167V319h43V189.667
		C403.167,124.509,350.157,71.5,285,71.5z"/>
	<path style="fill:#23272B;" d="M375.194,383.64h-40.36V236.36h40.36c40.67,0,73.64,32.97,73.64,73.64l0,0
		C448.833,350.67,415.864,383.64,375.194,383.64z"/>
</g>
<g>
	<rect x="323.5" y="229" style="fill:#414952;" width="49.33" height="162"/>
	<path style="fill:#414952;" d="M136.806,236.36h40.36v147.28h-40.36c-40.67,0-73.64-32.97-73.64-73.64l0,0
		C63.167,269.33,96.136,236.36,136.806,236.36z"/>
</g>
<rect x="139.17" y="229" style="fill:#555A66;" width="49.33" height="162"/>
<rect x="199.35" y="256" style="fill:#FF0037;" width="25" height="108"/>
<rect x="287.65" y="256" style="fill:#D30F0F;" width="25" height="108"/>
<rect x="243.5" y="225" style="fill:#FF0037;" width="25" height="170"/>
<rect x="255.76" y="225" style="fill:#D30F0F;" width="12.738" height="170"/>
<g>
</g>
<g>
</g>
<g>
</g>
<g>
</g>
<g>
</g>
<g>
</g>
<g>
</g>
<g>
</g>
<g>
</g>
<g>
</g>
<g>
</g>
<g>
</g>
<g>
</g>
<g>
</g>
<g>
</g>
</svg>
